# xmcd
#
# Track frame offsets: 
#        150
#        19637
#        45230
#        64543
#        88817
#        111887
#        132130
#        153613
#        175592
#        196467
#        216262
#        236555
#        258080
#        284243
#        308415
#
# Disc length: 4356 seconds
#
# Revision: 5
# Processed by: cddbd v1.5.2PL0 Copyright (c) Steve Scherf et al.
# Submitted via: ExactAudioCopy v1.0b3
#
DISCID=c911020f
DTITLE=夏川りみ - BEST SONGS
DYEAR=2012
DGENRE=JPop
TTITLE0=涙そうそう
TTITLE1=イラヨイ月夜浜
TTITLE2=ファムレウタ（子守唄）
TTITLE3=赤花ひとつ
TTITLE4=サ・ラ・ラ
TTITLE5=いとしい人へ
TTITLE6=童神 ～ヤマトグチ～
TTITLE7=海の彼方
TTITLE8=愛よ愛よ
TTITLE9=ココロツタエ
TTITLE10=フルサト
TTITLE11=さようなら ありがとう ～天の風～
TTITLE12=ウンジュの原点
TTITLE13=景色
TTITLE14=あすという日が
EXTD=
EXTT0=
EXTT1=
EXTT2=
EXTT3=
EXTT4=
EXTT5=
EXTT6=
EXTT7=
EXTT8=
EXTT9=
EXTT10=
EXTT11=
EXTT12=
EXTT13=
EXTT14=
PLAYORDER=
